<svg xmlns="http://www.w3.org/2000/svg" version="1.0" width="482.000000pt" height="508.000000pt" viewBox="0 0 482.000000 508.000000" preserveAspectRatio="xMidYMid meet">

<g transform="translate(0.000000,508.000000) scale(0.100000,-0.100000)" fill="#000000" stroke="none">
<path d="M2369 5053 c-11 -13 -15 -89 -19 -364 l-5 -348 -324 245 c-198 149 -332 244 -346 244 -29 0 -57 -33 -53 -62 2 -17 94 -92 366 -297 l362 -273 0 -799 c0 -439 -2 -799 -4 -799 -7 0 -1360 781 -1370 791 -5 5 -33 203 -62 441 -30 238 -56 443 -59 456 -15 63 -105 44 -105 -23 0 -18 20 -199 45 -401 25 -202 45 -373 43 -381 -2 -9 -102 44 -298 157 -162 93 -304 170 -316 170 -26 0 -54 -30 -54 -58 0 -29 12 -36 329 -217 154 -88 280 -163 281 -166 0 -3 -163 -75 -362 -159 -200 -84 -373 -162 -386 -174 -28 -25 -25 -53 9 -78 l26 -20 414 176 c227 97 421 176 429 176 22 -1 1372 -783 1371 -795 -2 -10 -1331 -783 -1362 -792 -9 -3 -204 75 -433 172 -289 122 -422 174 -437 170 -29 -10 -44 -47 -29 -75 14 -25 12 -25 438 -205 259 -110 321 -140 310 -150 -7 -6 -137 -83 -288 -169 -151 -87 -283 -165 -292 -174 -35 -30 -10 -92 37 -92 10 0 151 77 313 170 162 94 297 168 300 166 2 -3 -16 -175 -42 -383 -25 -208 -46 -393 -46 -410 0 -44 36 -69 74 -52 15 7 29 22 31 33 3 12 29 216 58 454 30 238 58 436 63 442 10 9 1340 779 1362 787 9 4 12 -78 12 -391 l0 -396 -29 0 c-51 0 -157 -39 -217 -80 -69 -45 -105 -89 -142 -168 -24 -50 -27 -69 -27 -162 0 -95 3 -111 28 -162 57 -116 168 -185 447 -277 183 -60 263 -102 307 -160 84 -109 64 -286 -40 -365 -76 -58 -200 -84 -316 -66 -165 26 -267 127 -297 293 l-6 37 -90 0 -91 0 5 -65 c7 -87 59 -195 125 -261 60 -60 166 -118 254 -139 84 -20 267 -20 344 0 142 37 252 120 307 233 32 64 33 71 33 187 0 111 -2 124 -28 176 -36 75 -116 148 -213 197 -44 22 -159 67 -256 101 -207 70 -226 79 -278 131 -29 29 -41 51 -50 95 -27 128 27 233 145 286 59 27 195 32 260 10 96 -33 161 -103 186 -203 l11 -48 91 0 90 0 -6 53 c-9 73 -67 185 -122 236 -57 53 -172 108 -245 118 l-55 8 -3 394 c-2 313 0 392 10 388 22 -8 1352 -778 1362 -788 5 -5 34 -203 63 -441 29 -238 55 -442 58 -454 2 -11 16 -26 31 -33 38 -17 74 8 74 52 0 17 -21 202 -46 410 -26 208 -44 380 -42 383 3 2 138 -72 300 -166 162 -93 304 -170 315 -170 45 0 69 63 36 92 -10 9 -142 87 -293 174 -151 86 -281 163 -288 169 -11 10 51 40 310 150 433 183 426 180 439 208 13 30 -1 62 -31 72 -13 4 -155 -51 -436 -170 -229 -97 -424 -174 -433 -172 -27 8 -1360 781 -1363 791 -3 11 1350 795 1372 796 8 0 202 -79 429 -176 l414 -176 26 20 c34 25 37 53 9 78 -13 12 -186 90 -385 174 -200 84 -363 156 -363 159 1 3 127 78 281 166 155 88 292 168 305 178 42 32 22 97 -29 97 -12 0 -155 -77 -317 -170 -189 -109 -296 -165 -298 -157 -1 7 18 179 43 381 25 202 45 383 45 401 0 67 -90 86 -105 23 -3 -13 -29 -218 -58 -456 -30 -238 -58 -436 -63 -441 -10 -10 -1363 -791 -1370 -791 -2 0 -4 359 -4 799 l0 799 363 273 c271 205 363 280 365 297 4 29 -24 62 -53 62 -14 0 -149 -95 -346 -245 l-324 -244 -5 348 c-5 377 -6 381 -60 381 -15 0 -34 -7 -41 -17z"/>
</g>
</svg>
